<svg id="Icons" viewBox="0 0 60 60" xmlns="http://www.w3.org/2000/svg"><path d="m17.665 14 3.309-5.515c.181-.301.506-.485.857-.485h16.338c.351 0 .677.184.857.485l3.309 5.515-.335 2h5v-2s-4.835-8.058-4.835-8.058c-.723-1.205-2.025-1.942-3.43-1.942h-17.47c-1.405 0-2.707.737-3.43 1.942l-4.835 8.058v2s5 0 5 0z" fill="#3f3331"/><path d="m58 30.52v22.48c0 1.66-1.34 3-3 3h-50c-1.66 0-3-1.34-3-3v-22.48z" fill="#684038"/><path d="m35 37 20.97-5.24c1.78-.45 3.03-2.05 3.03-3.88v-10.88c0-1.66-1.34-3-3-3h-52c-1.66 0-3 1.34-3 3v10.88c0 1.83 1.25 3.43 3.03 3.88l20.97 5.24z" fill="#825043"/><rect fill="#ffc55f" height="7" rx="2" width="10" x="25" y="34"/></svg>