<svg id="Icons" viewBox="0 0 60 60" xmlns="http://www.w3.org/2000/svg"><path d="m38 28a10 10 0 0 1 10 10v5h-36v-5a10 10 0 0 1 10-10l8 1z" fill="#1d2870"/><path d="m38 28-5.69 7.82a2.855 2.855 0 0 1 -4.62 0l-5.69-7.82z" fill="#dfe2f2"/><path d="m39 15v5a9 9 0 0 1 -18 0v-5z" fill="#ef876f"/><path d="m39 8.67v6.33a31.393 31.393 0 0 1 -9 1 31.393 31.393 0 0 1 -9-1v-6.33z" fill="#1d2870"/><path d="m59 47a18.15 18.15 0 0 1 -1.047 6.348 2.5 2.5 0 0 1 -2.753 1.617 124.112 124.112 0 0 0 -21.2-1.965h-8a124.112 124.112 0 0 0 -21.2 1.965 2.5 2.5 0 0 1 -2.756-1.617 18.15 18.15 0 0 1 -1.044-6.348 18.15 18.15 0 0 1 1.047-6.348 2.5 2.5 0 0 1 2.753-1.617 124.112 124.112 0 0 0 21.2 1.965h8a124.112 124.112 0 0 0 21.2-1.965 2.5 2.5 0 0 1 2.756 1.617 18.15 18.15 0 0 1 1.044 6.348z" fill="#e2b886"/><path d="m45.19 7.049-14.913 3.915a1.084 1.084 0 0 1 -.554 0l-14.913-3.915a1.084 1.084 0 0 1 0-2.1l14.913-3.913a1.084 1.084 0 0 1 .554 0l14.913 3.915a1.084 1.084 0 0 1 0 2.098z" fill="#16225e"/><path d="m34 52v5.9a1.1 1.1 0 0 1 -1.752.876l-1.842-1.376a.675.675 0 0 0 -.812 0l-1.842 1.381a1.1 1.1 0 0 1 -1.752-.881v-4.9l1-1z" fill="#ad2142"/><path d="m34 53s2-1.852 2-6-2-6-2-6h-8s2 1.852 2 6-2 6-2 6z" fill="#c62645"/><path d="m43 15a1 1 0 0 1 -1-1v-5.494l-12.124-1.514a1 1 0 0 1 .248-1.984l12.124 1.514a2 2 0 0 1 1.752 1.984v5.494a1 1 0 0 1 -1 1z" fill="#f4ab19"/></svg>