<svg id="Icons" viewBox="0 0 60 60" xmlns="http://www.w3.org/2000/svg"><path d="m19.46 40.97c-6.64-.24-8.38-2.05-9.24-2.96-.4-.44-.23-1.15.31-1.37 1.65-.65 4.47-2.64 4.47-10.64v-9s0-1 0-1c0-8.28 6.72-15 15-15 4.14 0 7.89 1.68 10.605 4.395s4.395 6.465 4.395 10.605v1s0 9 0 9c0 8 2.82 9.99 4.47 10.64.54.22.71.93.31 1.37-.86.91-2.6 2.72-9.24 2.96z" fill="#774037"/><path d="m34 40c8 0 14 3 14 15v2c0 1.105-.895 2-2 2h-32c-1.105 0-2-.895-2-2v-2c0-12 6-15 14-15z" fill="#514def"/><path d="m34 36.89v4.11c0 2.21-1.79 4-4 4s-4-1.79-4-4v-4.11z" fill="#f4a995"/><path d="m41 18c-5.5 0-5.5-6-5.5-6s-2.75 6-16.5 6v8c0 5.333 5.5 12 11 12s11-6.667 11-12z" fill="#fcb49d"/><path d="m15 17h3c.552 0 1 .448 1 1v8h-4c-1.104 0-2-.896-2-2v-5c0-1.104.896-2 2-2z" fill="#172a3d"/><path d="m41 33h-8v-2h8c1.654 0 3-1.346 3-3v-3h2v3c0 2.757-2.243 5-5 5z" fill="#d8e1e5"/><g fill="#172a3d"><path d="m43 17h4v8c0 .552-.448 1-1 1h-3c-1.104 0-2-.896-2-2v-5c0-1.104.896-2 2-2z" transform="matrix(-1 0 0 -1 88 43)"/><rect height="4" rx="2" width="7" x="28" y="30"/></g></svg>