<svg id="Icons" height="512" viewBox="0 0 60 60" width="512" xmlns="http://www.w3.org/2000/svg"><path d="m21 1.18a1.968 1.968 0 0 1 .83-.18h27.17a2.006 2.006 0 0 1 2 2v54a2.006 2.006 0 0 1 -2 2h-38a2.006 2.006 0 0 1 -2-2v-43.17a1.968 1.968 0 0 1 .18-.83z" fill="#e0dfe5"/><path d="m21 11.06a11.9 11.9 0 1 1 -1.33 1.82z" fill="#33c455"/><path d="m21 1.18v9.82a2.006 2.006 0 0 1 -2 2h-9.82a2.017 2.017 0 0 1 .41-.59l10.82-10.82a2.017 2.017 0 0 1 .59-.41z" fill="#a6a6bc"/><path d="m27 26a1 1 0 0 1 -.707-.293l-2-2a1 1 0 0 1 1.414-1.414l1.21 1.21 7.3-9.128a1 1 0 0 1 1.562 1.25l-8 10a1 1 0 0 1 -.725.374z" fill="#fff"/><g fill="#bbbace"><path d="m45 38h-30a1 1 0 0 1 0-2h30a1 1 0 0 1 0 2z"/><path d="m45 43h-30a1 1 0 0 1 0-2h30a1 1 0 0 1 0 2z"/><path d="m45 48h-30a1 1 0 0 1 0-2h30a1 1 0 0 1 0 2z"/><path d="m32 53h-17a1 1 0 0 1 0-2h17a1 1 0 0 1 0 2z"/></g></svg>