<svg id="Icons" viewBox="0 0 60 60" xmlns="http://www.w3.org/2000/svg"><path d="m59 15v41c0 1.66-1.34 3-3 3h-52c-1.66 0-3-1.34-3-3v-41l1-2h56z" fill="#ebf0f2"/><path d="m59 9v6h-58v-6c0-1.66 1.34-3 3-3h52c1.66 0 3 1.34 3 3z" fill="#e83a47"/><g fill="#2f3f56"><rect height="10" rx="2.5" width="5" x="12" y="1"/><rect height="10" rx="2.5" transform="matrix(-1 0 0 -1 91 12)" width="5" x="43" y="1"/><path d="m42 34.58v12.48c0 1.65-1.01 3.15-2.56 3.72-1.73.65-4.63 1.22-9.44 1.22s-7.71-.57-9.44-1.22c-1.55-.57-2.56-2.07-2.56-3.72v-12.48z"/></g><path d="m51.216 31.131-20.792 7.793c-.273.103-.575.103-.848 0l-20.792-7.793c-1.045-.392-1.045-1.869 0-2.261l20.792-7.793c.273-.103.575-.103.848 0l20.792 7.793c1.045.392 1.045 1.869 0 2.261z" fill="#3a587c"/><path d="m48 44c-.553 0-1-.447-1-1v-9.785l-17.129-2.224c-.548-.07-.934-.572-.862-1.12.07-.548.57-.938 1.12-.862l18 2.336c.498.064.871.488.871.991v10.664c0 .553-.447 1-1 1z" fill="#ffba31"/></svg>