<svg id="Icons" viewBox="0 0 60 60" xmlns="http://www.w3.org/2000/svg"><path d="m50.97 24.04c4.91 3.63 8.03 9.07 8.03 15.16 0 3.88-1.27 7.51-3.46 10.56l1.36 6.83c.14.72-.49 1.35-1.21 1.21l-7.73-1.55c-3.36 1.75-7.27 2.75-11.46 2.75-11.17 0-20.43-7.16-22.19-16.55z" fill="#c2d1d3"/><path d="m51 23c0 12.15-11.19 22-25 22-4.65 0-9-1.11-12.73-3.06l-8.588 1.723c-.8.16-1.506-.545-1.346-1.345l1.514-7.588c-2.44-3.39-3.85-7.42-3.85-11.73 0-12.15 11.19-22 25-22s25 9.85 25 22z" fill="#30a8f2"/><g fill="#fff"><circle cx="13" cy="23" r="4"/><circle cx="26" cy="23" r="4"/><circle cx="39" cy="23" r="4"/></g></svg>