<svg id="Icons" height="512" viewBox="0 0 60 60" width="512" xmlns="http://www.w3.org/2000/svg"><path d="m12 6.99v20.01h-9a2.006 2.006 0 0 1 -2-2v-19a5 5 0 0 1 5-5h.01a5.99 5.99 0 0 1 5.99 5.99z" fill="#b0ccdd"/><path d="m16 59a4.1 4.1 0 0 1 -.49-.02 5.14 5.14 0 0 1 -4.51-5.19v-47.58a5.14 5.14 0 0 0 -4.51-5.19 3.854 3.854 0 0 0 -.48-.02h37.99a5 5 0 0 1 5 5v44l-31 9z" fill="#e1efff"/><path d="m59 52v2a5 5 0 0 1 -5 5h-38a5 5 0 0 0 5-5v-2a2.006 2.006 0 0 1 2-2h34a2.006 2.006 0 0 1 2 2z" fill="#b0ccdd"/><path d="m44.976 31.99s-2.824-2.832-3.707-13.837a7.187 7.187 0 0 1 1.651-5.041 4.994 4.994 0 0 0 1.02-3.986 5.174 5.174 0 0 0 -4.94-4.126 4.992 4.992 0 0 0 -3.922 8.112 7.183 7.183 0 0 1 1.651 5.041c-.883 11.005-3.707 13.837-3.707 13.837l5.978 1.01z" fill="#cd4c60"/><path d="m23 41v3a2.006 2.006 0 0 0 2 2h28a2.006 2.006 0 0 0 2-2v-3z" fill="#bfdbf0"/><path d="m50.5 32a5.09 5.09 0 0 1 4.879 3.56l1.58 5.15a1.013 1.013 0 0 1 -.98 1.29h-33.959a1.013 1.013 0 0 1 -.98-1.29l1.58-5.15a5.09 5.09 0 0 1 4.88-3.56z" fill="#a53c50"/><g fill="#9ebbce"><path d="m30 9h-14a1 1 0 0 1 0-2h14a1 1 0 0 1 0 2z"/><path d="m30 15h-14a1 1 0 0 1 0-2h14a1 1 0 0 1 0 2z"/><path d="m32 21h-16a1 1 0 0 1 0-2h16a1 1 0 0 1 0 2z"/><path d="m30 27h-14a1 1 0 0 1 0-2h14a1 1 0 0 1 0 2z"/><path d="m20 33h-4a1 1 0 0 1 0-2h4a1 1 0 0 1 0 2z"/></g></svg>