<svg id="Icons" viewBox="0 0 60 60" xmlns="http://www.w3.org/2000/svg"><path d="m41.989 18.111 16.719 11.327c.389.264.389.86 0 1.124l-16.719 11.327c-.536.363-1.193-.23-.929-.839l4.797-11.05-4.797-11.05c-.264-.609.393-1.202.929-.839z" fill="#a183e2"/><path d="m21.989 18.111 16.719 11.327c.389.264.389.86 0 1.124l-16.719 11.327c-.536.363-1.193-.23-.929-.839l4.797-11.05-4.797-11.05c-.264-.609.393-1.202.929-.839z" fill="#8276d6"/><path d="m1.989 18.111 16.719 11.327c.389.264.389.86 0 1.124l-16.719 11.327c-.536.363-1.193-.23-.929-.839l4.797-11.05-4.797-11.05c-.264-.609.393-1.202.929-.839z" fill="#6058bc"/></svg>