<svg id="Icons" height="512" viewBox="0 0 60 60" width="512" xmlns="http://www.w3.org/2000/svg"><path d="m59 22v21l-1 1h-29v-22l29-2z" fill="#3350e2"/><path d="m59 4v18h-30l2-21h25a3 3 0 0 1 3 3z" fill="#ffb91d"/><path d="m31 1v43h-29l-1-1v-39a3 3 0 0 1 3-3z" fill="#33bc95"/><path d="m39 54v1h-18v-1l2-5v-1h14v1z" fill="#9dc5ce"/><path d="m59 43v3a3 3 0 0 1 -3 3h-52a3 3 0 0 1 -3-3v-3z" fill="#c0d7dd"/><path d="m17 54h26a2 2 0 0 1 2 2v2a1 1 0 0 1 -1 1h-28a1 1 0 0 1 -1-1v-2a2 2 0 0 1 2-2z" fill="#c0d7dd"/><path d="m51 22v-1a5.973 5.973 0 0 0 -3.82-5.58h-6.36a5.973 5.973 0 0 0 -3.82 5.58v1z" fill="#db464e"/><path d="m49 12v-2a5 5 0 0 0 -5-5 5 5 0 0 0 -5 5v2z" fill="#332524"/><path d="m8.16 27.95a3.971 3.971 0 0 1 -2.73-1.86 1.229 1.229 0 0 1 .22-1.52c.88-.8 2.35-2.97 2.35-8.57v-3a8 8 0 0 1 16 0v3c0 5.6 1.47 7.77 2.35 8.57a1.229 1.229 0 0 1 .22 1.52 3.971 3.971 0 0 1 -2.73 1.86z" fill="#203242"/><path d="m6 43v-10a7 7 0 0 1 7-7h6a7 7 0 0 1 7 7v10z" fill="#3350e2"/><path d="m19 22.96v3.04a3 3 0 0 1 -6 0v-3.04z" fill="#e8bcb1"/><path d="m18 11s-2 3-8 3a2 2 0 0 0 0 4c1 3 2.686 6 6 6s5-3 6-6a2 2 0 0 0 0-4c-4 0-4-3-4-3z" fill="#fdd1c3"/><path d="m47.92 10.23-.242-.586a1.223 1.223 0 0 0 -1.778-.584 3.461 3.461 0 0 1 -1.9.568 3.467 3.467 0 0 1 -1.9-.568 1.222 1.222 0 0 0 -1.78.584l-.242.586a1.99 1.99 0 0 0 0 3.54 3.994 3.994 0 0 0 7.84 0 1.99 1.99 0 0 0 0-3.54z" fill="#91514c"/><path d="m51 43v-1a5.973 5.973 0 0 0 -3.82-5.58h-6.36a5.973 5.973 0 0 0 -3.82 5.58v1z" fill="#33bc95"/><path d="m49 33v-2a5 5 0 0 0 -5-5 5 5 0 0 0 -5 5v2z" fill="#203242"/><path d="m47.92 31.23-.242-.586a1.223 1.223 0 0 0 -1.778-.584 3.461 3.461 0 0 1 -1.9.568 3.467 3.467 0 0 1 -1.9-.568 1.222 1.222 0 0 0 -1.78.584l-.242.586a1.99 1.99 0 0 0 0 3.54 3.994 3.994 0 0 0 7.84 0 1.99 1.99 0 0 0 0-3.54z" fill="#fdd1c3"/></svg>