<svg width="198" height="25" viewBox="0 0 198 25" fill="none" xmlns="http://www.w3.org/2000/svg">
<mask id="mask0_775_143" style="mask-type:luminance" maskUnits="userSpaceOnUse" x="0" y="0" width="198" height="25">
<path d="M198 0H0V24.8182H198V0Z" fill="white"/>
</mask>
<g mask="url(#mask0_775_143)">
<path d="M26.4138 17.278C26.4138 14.0878 24.9326 12.1386 22.0009 11.4061C21.9511 11.394 21.9494 11.3268 22.0009 11.3113C23.8688 10.727 25.5873 9.37061 25.5873 6.04945C25.5873 1.54427 22.5543 0.0189819 15.9349 0.0189819H0.0704389C-0.00517162 0.0189819 -0.0206374 0.303357 0.0549731 0.322316C0.0618469 0.322316 0.0687206 0.325763 0.0687206 0.325763C0.823107 0.455024 1.29223 0.501558 1.74934 0.785932C2.21675 1.0772 2.17722 1.30987 2.17722 1.97169L2.17379 22.4002C2.17379 23.062 2.21331 23.2981 1.7459 23.5893C1.28708 23.8737 0.817952 23.922 0.0652837 24.0495C0.0652837 24.0495 0.0566916 24.0495 0.0515363 24.053C-0.0240743 24.072 -0.0103269 24.3563 0.0652837 24.3563H16.5415C23.4909 24.3563 26.4138 21.5902 26.4138 17.2762V17.278ZM10.4446 4.61034H13.6339C16.0603 4.61034 17.4849 4.98779 17.4849 7.20075C17.4849 8.63813 16.6016 9.9204 13.7319 9.9204H10.4446C10.1576 9.9204 9.87231 9.95659 9.87231 9.95659C9.87231 9.95659 9.91012 9.67911 9.91012 9.38612V5.14463C9.91012 4.81716 9.86201 4.56209 9.86201 4.56209C9.86201 4.56209 10.1576 4.60862 10.4446 4.60862V4.61034ZM10.4428 19.6564C10.1541 19.6564 9.87748 19.6995 9.87748 19.6995C9.87748 19.6995 9.91012 19.4048 9.91012 19.1238V14.217C9.91012 13.8879 9.87059 13.6432 9.87059 13.6432C9.87059 13.6432 10.1576 13.6827 10.4428 13.6827H13.139C15.2905 13.6827 17.9232 13.6827 17.9232 16.6696C17.9232 18.8809 16.0381 19.6564 13.5017 19.6564H10.4428Z" fill="#454540"/>
<path d="M87.3114 0.0189819H75.1587C75.083 0.0189819 75.0676 0.303357 75.1432 0.322316C75.1501 0.322316 75.1569 0.325763 75.1569 0.325763C75.9251 0.422277 76.2808 0.501558 76.7396 0.785932C77.207 1.0772 77.1676 1.31159 77.1676 1.97341V14.2516C77.1676 17.0505 75.5694 19.2014 72.3954 19.2014C69.2215 19.2014 67.6217 17.0505 67.6217 14.2516V1.97686C67.6217 1.31504 67.5839 1.07893 68.0513 0.787658C68.5084 0.503282 68.8916 0.430895 69.6322 0.327486C69.6322 0.327486 69.6408 0.327486 69.646 0.324039C69.7216 0.305081 69.7078 0.0207062 69.6305 0.0207062H58.16C58.0759 0.0207062 58.0913 0.306804 58.1634 0.324039C58.1704 0.324039 58.1772 0.327486 58.1772 0.327486C58.5966 0.353338 58.8852 0.377467 59.1429 0.59807C59.5262 0.923815 59.5863 1.31332 59.5863 1.97514V14.0413C59.5863 19.8598 62.7602 24.7993 72.392 24.7993C82.0237 24.7993 85.1976 19.8598 85.1976 14.0413V1.97341C85.1976 1.31159 85.1582 1.07893 85.6273 0.787658C86.0862 0.503282 86.5552 0.456747 87.3096 0.327486C87.3096 0.327486 87.3165 0.327486 87.3234 0.324039C87.399 0.305081 87.3853 0.0207062 87.3096 0.0207062L87.3114 0.0189819Z" fill="#454540"/>
<path d="M26.4139 0.324039C26.9226 0.375743 27.1992 0.33955 27.7955 0.630819C27.866 0.665292 28.0309 0.775591 28.0962 0.830747C28.4743 1.14959 28.7063 1.4443 29.1668 2.13198L37.5597 14.5962V22.4018C37.5597 23.0637 37.5991 23.2998 37.1317 23.5911C36.6747 23.8755 36.2037 23.922 35.4511 24.0512C35.4511 24.0512 35.4425 24.0513 35.4374 24.0547C35.3617 24.0736 35.3755 24.358 35.4528 24.358H48.3736C48.4492 24.358 48.4647 24.0736 48.3891 24.0547C48.3822 24.0547 48.3736 24.0512 48.3736 24.0512C47.621 23.922 47.1518 23.8755 46.693 23.5911C46.2256 23.2998 46.2634 23.0637 46.2634 22.4018V14.6479L54.6682 2.13198C55.1287 1.44603 55.4226 1.08754 55.8006 0.768701C55.8659 0.713546 56.0189 0.611862 56.1134 0.551539C56.4605 0.377468 56.5929 0.336104 57.0207 0.324039C57.0207 0.324039 57.0277 0.322316 57.0345 0.320593C57.11 0.310252 57.1342 0.0189819 57.0465 0.0189819H45.7118C45.619 0.0189819 45.6379 0.315422 45.7169 0.324039C45.7221 0.324039 45.7307 0.327486 45.7307 0.327486C46.2806 0.327486 46.9577 0.332657 46.8476 1.12373C46.7841 1.89241 43.5173 6.63027 42.354 8.42959C42.1873 8.68811 42.0584 8.95352 42.0017 9.27754C41.9588 8.9587 41.7594 8.63468 41.6254 8.43303C40.0032 6.00982 37.2297 2.08372 37.1489 1.12202C37.0819 0.299911 37.7159 0.324039 38.2659 0.324039C38.2659 0.324039 38.2727 0.320593 38.2813 0.320593C38.3604 0.313698 38.3878 0.0189819 38.2951 0.0189819H26.3916C26.3212 0.0189819 26.328 0.29474 26.3985 0.320593C26.4037 0.322316 26.4123 0.324039 26.4123 0.324039H26.4139Z" fill="#454540"/>
<path d="M94.1953 0.0585981V24.7596C94.1953 24.7923 94.3363 24.8182 94.5081 24.8182C94.68 24.8182 94.8209 24.7923 94.8209 24.7596V0.0585981C94.8209 0.0258523 94.68 0 94.5081 0C94.3363 0 94.1953 0.0258523 94.1953 0.0585981Z" fill="#454540"/>
<path d="M106.245 5.72541H106.021C105.994 5.72541 105.994 5.64096 105.994 5.55651C105.994 5.44448 105.994 5.36003 106.051 5.36003C107.48 5.36003 108.04 3.95539 108.04 2.88683C108.04 1.53734 107.228 0.751435 105.911 0.751435C105.547 0.751435 105.324 0.835888 105.239 0.947913C105.155 1.05994 105.016 1.90272 105.016 3.98296V6.17524C105.016 8.92937 105.128 9.29475 105.324 9.37919C105.547 9.49122 105.996 9.57567 106.669 9.63255C106.726 9.66012 106.726 9.77387 106.726 9.8566C106.726 9.93933 106.726 9.99792 106.698 9.99792H102.215C102.215 9.99792 102.188 9.91348 102.188 9.8566C102.188 9.74458 102.215 9.66012 102.244 9.63255C102.861 9.57567 103.112 9.49122 103.31 9.37919C103.506 9.29475 103.647 8.92937 103.647 6.17524V3.98296C103.647 1.22884 103.506 0.891032 103.31 0.806579C103.114 0.694554 102.861 0.610102 102.244 0.525655C102.217 0.525655 102.188 0.384329 102.188 0.301602C102.188 0.244727 102.215 0.189575 102.215 0.189575C102.916 0.189575 103.616 0.217152 104.205 0.217152C104.794 0.217152 105.382 0.189575 105.942 0.189575C108.156 0.189575 109.585 1.37016 109.585 2.91612C109.585 4.26562 108.24 5.72714 106.252 5.72714L106.245 5.72541Z" fill="#454540"/>
<path d="M120.274 9.99621C120.246 9.99621 120.246 9.88418 120.246 9.77216C120.246 9.68771 120.246 9.63083 120.274 9.63083C120.749 9.60325 121.059 9.4895 121.059 9.26546C121.059 9.0121 120.864 8.50712 119.967 6.37H116.883C116.155 8.28134 115.986 8.84319 115.986 9.181C115.986 9.43435 116.21 9.57396 116.854 9.63083C116.882 9.63083 116.911 9.71528 116.911 9.79973C116.911 9.88418 116.883 9.99621 116.854 9.99621H113.605C113.577 9.99621 113.548 9.91176 113.548 9.8273C113.548 9.74285 113.575 9.65841 113.605 9.63083C114.081 9.60325 114.361 9.5188 114.586 9.3499C114.893 9.12585 115.23 8.56227 116.127 6.20282L116.968 4.01055C117.444 2.74551 117.949 1.42532 118.34 0.244729C118.34 0.187854 118.509 0.160278 118.677 0.160278C118.846 0.160278 119.014 0.187854 119.042 0.244729C119.434 1.42532 119.855 2.437 120.303 3.61759L121.312 6.20282C122.432 9.06898 122.657 9.2103 122.938 9.3792C123.217 9.5481 123.442 9.60325 123.889 9.63255C123.917 9.63255 123.917 9.68943 123.917 9.77387C123.917 9.88591 123.917 9.99793 123.889 9.99793H120.276L120.274 9.99621ZM118.425 2.24053L117.164 5.66853H119.713L118.425 2.24053Z" fill="#454540"/>
<path d="M136.14 2.35259C136.14 2.35259 136.084 2.38016 135.999 2.38016C135.887 2.38016 135.776 2.35259 135.776 2.32328C135.776 1.93032 135.691 1.53565 135.496 1.31159C135.215 1.00309 134.767 0.804889 133.087 0.804889C132.75 0.804889 132.554 0.832472 132.415 0.832472C132.358 1.00137 132.33 1.5908 132.33 2.54734V6.20112C132.33 8.95525 132.471 9.29305 132.667 9.3775C132.863 9.48953 133.255 9.57398 133.872 9.63086C133.899 9.65843 133.899 9.74288 133.899 9.82734C133.899 9.91179 133.899 9.99623 133.872 9.99623H129.445C129.418 9.99623 129.388 9.91179 129.388 9.82734C129.388 9.74288 129.415 9.65843 129.445 9.63086C130.062 9.57398 130.454 9.48953 130.649 9.3775C130.846 9.29305 130.957 8.95525 130.957 6.20112V2.54906C130.957 1.59425 130.957 1.00309 130.9 0.834186C130.76 0.834186 130.48 0.806614 130.145 0.806614C128.548 0.806614 128.1 0.97552 127.735 1.31332C127.483 1.53737 127.343 1.9872 127.26 2.35259C127.26 2.38016 127.231 2.38016 127.175 2.38016C127.063 2.38016 126.894 2.32328 126.894 2.2957L127.118 0.103433C127.118 0.0758569 127.145 0.0465584 127.202 0.0465584C127.763 0.131009 128.968 0.215459 131.658 0.215459C135.357 0.215459 135.916 0.131009 136.198 0.0189819C136.255 0.0189819 136.283 0.0465584 136.283 0.0758569C136.283 0.665292 136.253 1.53737 136.14 2.35259Z" fill="#454540"/>
<path d="M148.604 9.9962C148.577 9.9962 148.547 9.91175 148.547 9.82729C148.547 9.74285 148.574 9.6584 148.604 9.63082C149.221 9.57395 149.471 9.48949 149.669 9.37747C149.865 9.29302 150.006 8.95522 150.006 6.20109V5.30143H144.375V6.20109C144.375 8.95522 144.515 9.29302 144.712 9.37747C144.908 9.48949 145.16 9.57395 145.777 9.63082C145.805 9.6584 145.834 9.74285 145.834 9.85488C145.834 9.91175 145.806 9.9962 145.806 9.9962H141.603C141.576 9.9962 141.576 9.91175 141.576 9.82729C141.576 9.74285 141.576 9.6584 141.632 9.63082C142.249 9.57395 142.5 9.48949 142.698 9.37747C142.894 9.29302 143.005 8.95522 143.005 6.20109V4.00881C143.005 1.25468 142.894 0.91688 142.698 0.832427C142.502 0.720403 142.249 0.63595 141.632 0.551502C141.576 0.551502 141.576 0.467052 141.576 0.3826C141.576 0.29815 141.576 0.213699 141.603 0.213699H145.806C145.806 0.213699 145.834 0.270574 145.834 0.325725C145.834 0.410177 145.806 0.549779 145.777 0.549779C145.16 0.634225 144.909 0.718677 144.712 0.830702C144.515 0.915155 144.375 1.25297 144.375 4.00709V4.68097H150.006V4.00709C150.006 1.25297 149.865 0.915155 149.669 0.830702C149.473 0.718677 149.221 0.634225 148.604 0.549779C148.577 0.549779 148.547 0.465327 148.547 0.380877C148.547 0.296427 148.574 0.211975 148.604 0.211975H152.779C152.806 0.211975 152.807 0.26885 152.807 0.353302C152.807 0.437752 152.806 0.549779 152.75 0.549779C152.163 0.634225 151.882 0.718677 151.684 0.830702C151.516 0.915155 151.377 1.25297 151.377 4.00709V6.19936C151.377 8.95349 151.518 9.29129 151.684 9.37574C151.881 9.48777 152.161 9.57222 152.75 9.6291C152.806 9.65667 152.807 9.77042 152.807 9.85315C152.807 9.93588 152.806 9.99447 152.779 9.99447H148.604V9.9962Z" fill="#454540"/>
<path d="M171.424 0.863468C171.172 1.05994 170.865 1.34088 169.829 4.01056L168.988 6.20283C168.512 7.46787 167.951 8.78806 167.558 9.96865C167.53 10.0255 167.362 10.0531 167.193 10.0531C167.025 10.0531 166.857 10.0255 166.857 9.96865C166.352 8.64845 165.905 7.5799 165.316 6.20283L164.979 5.41519L164.615 6.20283C164.027 7.46787 163.464 8.78806 162.988 9.96865C162.961 10.0255 162.793 10.0531 162.624 10.0531C162.455 10.0531 162.288 10.0255 162.288 9.96865C161.866 8.64845 161.502 7.5799 160.972 6.20283L160.131 4.01056C159.122 1.34088 158.842 1.00308 158.59 0.863468C158.366 0.694574 158.03 0.610121 157.581 0.554966C157.554 0.554966 157.524 0.470515 157.524 0.386065C157.524 0.301614 157.551 0.217163 157.581 0.217163H161.309C161.336 0.217163 161.336 0.301614 161.336 0.386065C161.336 0.470515 161.336 0.554966 161.309 0.554966C160.721 0.639419 160.523 0.751443 160.523 0.977218C160.523 1.28572 160.718 1.70798 161.531 4.01228L162.988 8.20035L164.615 4.54656L164.361 4.01228C163.13 1.37017 163.016 1.0048 162.765 0.865193C162.513 0.696288 162.206 0.611847 161.729 0.55669C161.701 0.55669 161.701 0.472239 161.701 0.415364C161.701 0.330913 161.701 0.218886 161.729 0.218886H168.341C168.37 0.218886 168.398 0.330913 168.398 0.415364C168.398 0.499815 168.371 0.55669 168.341 0.55669C167.893 0.61356 167.698 0.698013 167.474 0.865193C166.998 1.20299 166.717 1.65283 165.71 3.90026L167.447 8.22792L169.072 4.01228C169.885 1.93203 169.996 1.39947 169.996 1.06167C169.996 0.78074 169.744 0.639419 169.072 0.554966C169.045 0.554966 169.045 0.470515 169.045 0.41364C169.045 0.32919 169.045 0.217163 169.072 0.217163H172.351C172.378 0.217163 172.378 0.32919 172.378 0.41364C172.378 0.470515 172.378 0.554966 172.351 0.554966C171.875 0.611847 171.65 0.696288 171.427 0.863468H171.424ZM165.26 0.582542C164.728 0.582542 164.532 0.751443 164.532 0.975492C164.532 1.25642 164.644 1.53735 165.26 2.99887L165.344 3.19535C165.932 1.81828 166.045 1.34088 166.045 1.05995C166.045 0.806599 165.823 0.582542 165.26 0.582542Z" fill="#454540"/>
<path d="M181.178 9.99621C181.151 9.99621 181.151 9.88418 181.151 9.77216C181.151 9.68771 181.151 9.63083 181.178 9.63083C181.654 9.60325 181.963 9.4895 181.963 9.26546C181.963 9.0121 181.768 8.50712 180.871 6.37H177.788C177.059 8.28134 176.891 8.84319 176.891 9.181C176.891 9.43435 177.115 9.57396 177.758 9.63083C177.786 9.63083 177.816 9.71528 177.816 9.79973C177.816 9.88418 177.787 9.99621 177.758 9.99621H174.509C174.482 9.99621 174.452 9.91176 174.452 9.8273C174.452 9.74285 174.479 9.65841 174.509 9.63083C174.985 9.60325 175.265 9.5188 175.49 9.3499C175.798 9.12585 176.135 8.56227 177.032 6.20282L177.872 4.01055C178.348 2.74551 178.853 1.42532 179.245 0.244729C179.245 0.187854 179.414 0.160278 179.581 0.160278C179.75 0.160278 179.918 0.187854 179.947 0.244729C180.338 1.42532 180.759 2.437 181.208 3.61759L182.217 6.20282C183.336 9.06898 183.561 9.2103 183.842 9.3792C184.122 9.5481 184.347 9.60325 184.794 9.63255C184.821 9.63255 184.821 9.68943 184.821 9.77387C184.821 9.88591 184.821 9.99793 184.794 9.99793H181.179L181.178 9.99621ZM179.329 2.24053L178.068 5.66853H180.618L179.329 2.24053Z" fill="#454540"/>
<path d="M196.907 0.751443C196.515 0.94792 196.236 1.37017 195.422 2.63349L194.582 3.95367C194.218 4.51553 193.854 5.13426 193.517 5.69612V6.20283C193.517 8.95696 193.657 9.29476 193.824 9.37921C194.02 9.49124 194.412 9.57569 195.029 9.63256C195.056 9.66014 195.056 9.74458 195.056 9.82903C195.056 9.91349 195.056 9.99794 195.029 9.99794H190.602C190.575 9.99794 190.546 9.91349 190.546 9.82903C190.546 9.74458 190.573 9.66014 190.602 9.63256C191.219 9.57569 191.611 9.49124 191.807 9.37921C192.002 9.29476 192.114 8.95696 192.114 6.20283V5.75299C191.777 5.16356 191.442 4.59999 191.022 3.95367L190.153 2.63349C189.173 1.1151 188.921 0.83417 188.64 0.751443C188.388 0.639418 188.08 0.610121 187.631 0.582542C187.604 0.582542 187.574 0.498091 187.574 0.41364C187.574 0.32919 187.601 0.217163 187.631 0.217163H191.359C191.386 0.217163 191.415 0.301613 191.415 0.41364C191.415 0.498091 191.387 0.582542 191.359 0.582542C191.022 0.610121 190.686 0.610121 190.686 0.779015C190.686 0.920348 190.883 1.25642 191.638 2.49389L193.153 4.96708L194.721 2.52146C195.309 1.59423 195.534 1.1444 195.534 0.920348C195.534 0.835896 195.506 0.779015 195.45 0.751443C195.309 0.66699 195.113 0.610121 194.694 0.582542C194.666 0.582542 194.666 0.525667 194.666 0.441216C194.666 0.32919 194.666 0.217163 194.694 0.217163H197.973C198 0.217163 198 0.32919 198 0.41364C198 0.498091 198 0.582542 197.973 0.582542C197.524 0.610121 197.133 0.66699 196.907 0.751443Z" fill="#454540"/>
<path d="M111.797 17.9588C111.61 18.1036 111.383 18.312 110.616 20.2872L109.994 21.909C109.642 22.8449 109.228 23.8204 108.938 24.6941C108.917 24.7354 108.793 24.7561 108.668 24.7561C108.542 24.7561 108.419 24.7354 108.419 24.6941C108.046 23.717 107.714 22.9276 107.279 21.909L107.03 21.3265L106.76 21.909C106.326 22.8449 105.911 23.8204 105.559 24.6941C105.538 24.7354 105.415 24.7561 105.289 24.7561C105.164 24.7561 105.04 24.7354 105.04 24.6941C104.729 23.717 104.459 22.9276 104.066 21.909L103.444 20.2872C102.698 18.312 102.49 18.0638 102.304 17.9588C102.139 17.8347 101.89 17.7709 101.559 17.7295C101.538 17.7295 101.517 17.6675 101.517 17.6054C101.517 17.5434 101.538 17.4813 101.559 17.4813H104.315C104.336 17.4813 104.336 17.5434 104.336 17.6054C104.336 17.6675 104.336 17.7295 104.315 17.7295C103.88 17.7916 103.734 17.8743 103.734 18.0415C103.734 18.2707 103.879 18.5827 104.48 20.2854L105.557 23.3826L106.759 20.6802L106.571 20.2854C105.659 18.3311 105.576 18.0622 105.391 17.957C105.203 17.8329 104.977 17.7692 104.624 17.7279C104.604 17.7279 104.604 17.6658 104.604 17.6244C104.604 17.5624 104.604 17.4797 104.624 17.4797H109.515C109.536 17.4797 109.556 17.5624 109.556 17.6244C109.556 17.6865 109.536 17.7279 109.515 17.7279C109.183 17.7692 109.039 17.8313 108.872 17.957C108.52 18.207 108.312 18.5395 107.566 20.201L108.852 23.4015L110.053 20.2838C110.654 18.7463 110.737 18.3517 110.737 18.1018C110.737 17.8933 110.549 17.7899 110.053 17.7279C110.032 17.7279 110.032 17.6658 110.032 17.6244C110.032 17.5624 110.032 17.4797 110.053 17.4797H112.478C112.498 17.4797 112.498 17.5624 112.498 17.6244C112.498 17.6658 112.498 17.7279 112.478 17.7279C112.125 17.7692 111.96 17.8313 111.794 17.957L111.797 17.9588ZM107.238 17.7502C106.845 17.7502 106.698 17.8743 106.698 18.0415C106.698 18.25 106.781 18.4568 107.238 19.5375L107.3 19.6822C107.735 18.6636 107.817 18.3104 107.817 18.1036C107.817 17.9156 107.652 17.7502 107.236 17.7502H107.238Z" fill="#454540"/>
<path d="M118.564 24.8182C116.368 24.8182 114.73 23.1964 114.73 21.1816C114.73 19.2704 116.368 17.3779 118.708 17.3779C120.905 17.3779 122.542 18.9997 122.542 21.0145C122.542 22.9259 120.905 24.8182 118.564 24.8182ZM118.482 17.8347C116.45 17.8347 115.871 19.4979 115.871 20.8697C115.871 22.6777 116.949 24.3615 118.793 24.3615C120.824 24.3615 121.403 22.6984 121.403 21.3264C121.403 19.5186 120.325 17.8347 118.482 17.8347Z" fill="#454540"/>
<path d="M133.019 24.7354C132.315 24.7354 131.755 24.632 131.299 24.3408C130.719 23.9461 130.078 23.1774 129.166 21.659H128.751C128.481 21.659 128.296 21.659 127.985 21.6384V21.8883C127.985 23.9254 128.087 24.1961 128.233 24.2581C128.378 24.3408 128.731 24.4029 129.229 24.4459C129.249 24.4666 129.27 24.5286 129.27 24.6113C129.27 24.6527 129.249 24.7148 129.249 24.7148H125.934C125.914 24.7148 125.914 24.6734 125.914 24.6113C125.914 24.5493 125.914 24.4666 125.955 24.4459C126.39 24.4045 126.597 24.3425 126.742 24.2581C126.866 24.1961 126.971 23.9254 126.971 21.8883V20.2665C126.971 18.2293 126.867 17.9795 126.742 17.9174C126.597 17.8347 126.39 17.7726 125.955 17.7088C125.914 17.7088 125.914 17.6261 125.914 17.564C125.914 17.502 125.914 17.4606 125.934 17.4606C126.451 17.4606 127.054 17.4813 127.488 17.4813C127.922 17.4813 128.357 17.4606 128.877 17.4606C130.596 17.4606 131.571 18.3758 131.571 19.2893C131.571 20.2027 130.907 20.9111 130.1 21.3885C131.632 23.6118 132.463 24.4236 133.353 24.4236H133.684C133.705 24.4029 133.747 24.632 133.747 24.6734C133.497 24.7148 133.289 24.7354 133.019 24.7354ZM128.854 17.876C128.461 17.876 128.211 17.9381 128.17 18.0208C128.087 18.1035 127.982 18.7895 127.982 20.2647C127.982 20.93 128.023 21.0127 128.086 21.0748C128.21 21.1782 128.438 21.2627 128.978 21.2627C129.827 21.2627 130.408 20.5147 130.408 19.6615C130.408 18.6636 129.952 17.8743 128.854 17.8743V17.876Z" fill="#454540"/>
<path d="M142.538 24.5476C142.455 24.6717 142.33 24.7562 142.041 24.7562C141.337 24.7562 140.508 24.7149 139.555 24.7149C138.809 24.7149 138.269 24.7149 137.441 24.7356C137.441 24.7356 137.42 24.6735 137.42 24.6321C137.42 24.5494 137.441 24.4874 137.462 24.4667C137.916 24.4253 138.104 24.3633 138.249 24.2788C138.393 24.2167 138.477 23.9668 138.477 21.9297V20.2872C138.477 18.25 138.395 18.0001 138.249 17.9381C138.104 17.8554 137.916 17.7933 137.462 17.7295C137.441 17.7295 137.42 17.6261 137.42 17.5641C137.42 17.5227 137.441 17.4813 137.441 17.4813H140.549C140.549 17.4813 140.571 17.5227 140.571 17.5641C140.571 17.6261 140.549 17.7295 140.529 17.7295C140.073 17.7916 139.886 17.8536 139.742 17.9381C139.597 18.0001 139.513 18.25 139.513 20.2872V21.9297C139.513 23.2809 139.617 23.9047 139.762 24.0702C139.886 24.1943 140.053 24.2788 140.717 24.2788C141.379 24.2788 141.794 24.1133 142.064 23.8013C142.313 23.5101 142.499 23.0327 142.581 22.6794C142.581 22.6588 142.622 22.6588 142.664 22.6588C142.746 22.6588 142.871 22.6794 142.871 22.7208C142.81 23.3033 142.643 24.384 142.54 24.5494L142.538 24.5476Z" fill="#454540"/>
<path d="M153.575 23.6135C152.789 24.3822 151.917 24.7354 150.467 24.7354C149.95 24.7354 149.14 24.7148 148.705 24.7148C148.27 24.7148 147.669 24.7354 147.173 24.7354C147.152 24.7354 147.132 24.6734 147.132 24.6113C147.132 24.5493 147.152 24.4873 147.173 24.4666C147.628 24.4252 147.815 24.3632 147.959 24.2788C148.104 24.2167 148.209 23.9461 148.209 21.909V20.2872C148.209 18.25 148.105 17.9795 147.959 17.9174C147.815 17.8347 147.628 17.7726 147.173 17.7088C147.152 17.7088 147.132 17.6468 147.132 17.5847C147.132 17.5227 147.152 17.4606 147.173 17.4606C147.669 17.4606 148.291 17.4813 148.705 17.4813C149.14 17.4813 150.197 17.4606 150.696 17.4606C153.016 17.4606 154.757 18.9979 154.757 21.0145C154.757 21.971 154.282 22.9258 153.577 23.6118L153.575 23.6135ZM150.363 17.8777C149.659 17.8777 149.471 17.9811 149.39 18.0863C149.327 18.169 149.225 18.7102 149.225 20.2475V21.9107C149.225 23.2619 149.327 23.8651 149.473 24.0306C149.681 24.2391 149.846 24.3011 150.448 24.3011C152.685 24.3011 153.639 23.3033 153.639 21.204C153.639 19.4995 152.541 17.8795 150.366 17.8795L150.363 17.8777Z" fill="#454540"/>
<path d="M168.074 17.9588C167.886 18.1036 167.66 18.312 166.893 20.2872L166.27 21.909C165.919 22.8449 165.504 23.8204 165.215 24.6941C165.193 24.7354 165.07 24.7561 164.945 24.7561C164.818 24.7561 164.695 24.7354 164.695 24.6941C164.322 23.717 163.991 22.9276 163.556 21.909L163.306 21.3265L163.036 21.909C162.603 22.8449 162.188 23.8204 161.836 24.6941C161.815 24.7354 161.692 24.7561 161.566 24.7561C161.441 24.7561 161.317 24.7354 161.317 24.6941C161.006 23.717 160.736 22.9276 160.342 21.909L159.72 20.2872C158.975 18.312 158.767 18.0638 158.581 17.9588C158.416 17.8347 158.167 17.7709 157.835 17.7295C157.814 17.7295 157.794 17.6675 157.794 17.6054C157.794 17.5434 157.814 17.4813 157.835 17.4813H160.592C160.612 17.4813 160.612 17.5434 160.612 17.6054C160.612 17.6675 160.612 17.7295 160.592 17.7295C160.157 17.7916 160.011 17.8743 160.011 18.0415C160.011 18.2707 160.155 18.5827 160.757 20.2854L161.834 23.3826L163.035 20.6802L162.848 20.2854C161.936 18.3311 161.853 18.0622 161.667 17.957C161.48 17.8329 161.253 17.7692 160.901 17.7279C160.881 17.7279 160.881 17.6658 160.881 17.6244C160.881 17.5624 160.881 17.4797 160.901 17.4797H165.792C165.812 17.4797 165.833 17.5624 165.833 17.6244C165.833 17.6865 165.812 17.7279 165.792 17.7279C165.46 17.7692 165.316 17.8313 165.149 17.957C164.796 18.207 164.589 18.5395 163.843 20.201L165.128 23.4015L166.329 20.2838C166.931 18.7463 167.013 18.3517 167.013 18.1018C167.013 17.8933 166.826 17.7899 166.329 17.7279C166.309 17.7279 166.309 17.6658 166.309 17.6244C166.309 17.5624 166.309 17.4797 166.329 17.4797H168.754C168.775 17.4797 168.775 17.5624 168.775 17.6244C168.775 17.6658 168.775 17.7279 168.754 17.7279C168.401 17.7692 168.236 17.8313 168.07 17.957L168.074 17.9588ZM163.515 17.7502C163.121 17.7502 162.975 17.8743 162.975 18.0415C162.975 18.25 163.058 18.4568 163.515 19.5375L163.576 19.6822C164.011 18.6636 164.094 18.3104 164.094 18.1036C164.094 17.9156 163.929 17.7502 163.513 17.7502H163.515Z" fill="#454540"/>
<path d="M172.403 24.7149C172.403 24.7149 172.381 24.6528 172.381 24.6115C172.381 24.5287 172.403 24.4667 172.423 24.446C172.879 24.4047 173.169 24.3426 173.292 24.2581C173.437 24.1961 173.541 23.9461 173.541 21.909V20.2872C173.541 18.25 173.439 18.0001 173.292 17.9381C173.169 17.8554 172.879 17.7933 172.423 17.7295C172.403 17.7295 172.381 17.6261 172.381 17.5641C172.381 17.5227 172.403 17.4813 172.403 17.4813H175.697C175.697 17.4813 175.717 17.5227 175.717 17.5641C175.717 17.6261 175.697 17.7295 175.675 17.7295C175.221 17.7916 174.931 17.8536 174.807 17.9381C174.662 18.0001 174.557 18.25 174.557 20.2872V21.909C174.557 23.9461 174.661 24.1961 174.807 24.2581C174.931 24.3408 175.221 24.4029 175.675 24.446C175.697 24.4667 175.717 24.5287 175.717 24.6115C175.717 24.6528 175.697 24.7149 175.697 24.7149H172.403Z" fill="#454540"/>
<path d="M186.703 23.6135C185.916 24.3822 185.045 24.7354 183.594 24.7354C183.077 24.7354 182.267 24.7148 181.834 24.7148C181.399 24.7148 180.796 24.7354 180.3 24.7354C180.28 24.7354 180.259 24.6734 180.259 24.6113C180.259 24.5493 180.28 24.4873 180.3 24.4666C180.755 24.4252 180.943 24.3632 181.087 24.2788C181.231 24.2167 181.336 23.9461 181.336 21.909V20.2872C181.336 18.25 181.234 17.9795 181.087 17.9174C180.943 17.8347 180.755 17.7726 180.3 17.7088C180.28 17.7088 180.259 17.6468 180.259 17.5847C180.259 17.5227 180.28 17.4606 180.3 17.4606C180.796 17.4606 181.419 17.4813 181.834 17.4813C182.267 17.4813 183.324 17.4606 183.823 17.4606C186.145 17.4606 187.885 18.9979 187.885 21.0145C187.885 21.971 187.409 22.9258 186.705 23.6118L186.703 23.6135ZM183.492 17.8777C182.787 17.8777 182.6 17.9811 182.517 18.0863C182.455 18.169 182.352 18.7102 182.352 20.2475V21.9107C182.352 23.2619 182.455 23.8651 182.601 24.0306C182.809 24.2391 182.974 24.3011 183.575 24.3011C185.812 24.3011 186.767 23.3033 186.767 21.204C186.767 19.4995 185.669 17.8795 183.493 17.8795L183.492 17.8777Z" fill="#454540"/>
<path d="M196.233 24.5477C196.151 24.6718 196.09 24.7562 195.798 24.7562C195.094 24.7562 194.266 24.7148 193.312 24.7148C192.567 24.7148 192.111 24.7148 191.301 24.7355C191.281 24.7355 191.26 24.6734 191.26 24.6114C191.26 24.5493 191.281 24.4873 191.301 24.4666C191.757 24.4253 191.965 24.3632 192.088 24.2788C192.233 24.2168 192.338 23.9461 192.338 21.909V20.2872C192.338 18.25 192.234 17.9795 192.088 17.9175C191.965 17.8347 191.757 17.7727 191.301 17.7089C191.281 17.7089 191.26 17.6468 191.26 17.5848C191.26 17.5227 191.281 17.4607 191.301 17.4607C192.193 17.4814 193.603 17.4814 194.349 17.4814C195.344 17.4814 195.84 17.44 196.213 17.44C196.255 17.44 196.255 17.4607 196.255 17.4814C196.213 17.8554 196.192 18.3966 196.131 18.9773C196.131 18.998 196.068 19.0187 196.007 19.0187C195.925 19.0187 195.842 18.998 195.842 18.9566C195.842 18.6654 195.78 18.3948 195.613 18.2087C195.426 18.0209 195.096 17.9175 194.286 17.9175C193.831 17.9175 193.52 17.9381 193.394 17.9381C193.353 18.0622 193.353 18.4362 193.353 19.1428V20.7216H194.203C195.3 20.7216 195.446 20.4716 195.509 20.0769C195.509 20.0562 195.591 20.0562 195.652 20.0562C195.715 20.0562 195.797 20.0562 195.797 20.0769C195.776 20.3889 195.735 21.7194 195.735 22.0089C195.735 22.0296 195.652 22.0503 195.591 22.0503C195.509 22.0503 195.446 22.0296 195.446 22.0089C195.446 21.8004 195.405 21.5109 195.281 21.4057C195.179 21.323 195.011 21.1972 194.184 21.1972H193.355V21.9038C193.355 23.255 193.458 23.8996 193.604 24.065C193.749 24.1891 193.895 24.2736 194.579 24.2736C195.262 24.2736 195.677 24.1082 195.885 23.8789C196.05 23.7134 196.176 23.4843 196.258 23.1102C196.258 23.0896 196.299 23.0896 196.319 23.0896C196.381 23.0896 196.484 23.1309 196.463 23.1516C196.422 23.7341 196.319 24.377 196.236 24.5441L196.233 24.5477Z" fill="#454540"/>
</g>
</svg>
