<svg width="276" height="50" viewBox="0 0 276 50" fill="none" xmlns="http://www.w3.org/2000/svg">
<path d="M3.32369 25.0096C3.31843 28.7449 4.39765 32.4005 6.42899 35.5281C10.782 32.2937 15.1538 28.4723 15.5047 25.9389C16.0142 23.3016 13.2598 21.3214 13.3937 17.0347C13.7766 12.0806 18.0349 8.71295 19.8853 7.42941C20.7904 6.77723 21.7534 6.21038 22.7621 5.73608H22.4942C17.4101 5.73764 12.5347 7.76878 8.93978 11.383C5.34491 14.9972 3.32485 19.8985 3.32369 25.0096Z" fill="#FFC328"/>
<path d="M20.5608 8.63229C19.319 9.86607 17.6855 12.2575 17.2124 13.9011C15.5207 19.8124 21.5551 20.6232 22.1113 26.7803C22.3136 32.5204 17.9621 38.2253 13.928 42.2559C18.2054 44.3975 23.1225 44.8624 27.7221 43.56C29.6234 39.5235 31.9149 33.239 30.4591 29.1718C27.5037 20.6217 20.9626 19.5372 20.4138 14.829C20.06 11.7731 21.2785 10.1061 23.4099 8.23274C24.461 7.30632 25.6897 6.67699 26.6054 6.17353C25.9112 6.02019 25.2088 5.90634 24.5018 5.83252C22.8872 6.71065 21.5741 7.63122 20.5608 8.63229Z" fill="#FFC328"/>
<path d="M29.4575 5.90576L29.4961 5.93818C29.4961 5.93818 29.4945 5.91711 29.4575 5.90576Z" fill="#FFC328"/>
<path d="M28.0511 6.5542C26.7627 7.34013 25.6577 8.1363 24.9778 8.81539C24.2979 9.49447 22.6004 11.6913 23.0124 13.6993C24.4202 18.2202 33.1028 18.8012 36.8662 27.2693C37.9035 29.9081 38.4769 32.7081 38.5608 35.5442C40.1878 33.0365 41.2117 30.1824 41.5512 27.2079C41.8906 24.2334 41.5365 21.2203 40.5167 18.4073C39.4969 15.5943 37.8395 13.0587 35.6758 11.0014C33.5121 8.94399 30.9016 7.42139 28.0511 6.5542Z" fill="#FFC328"/>
<path d="M66.76 40.44C63.6933 40.44 61.04 39.84 58.8 38.64C56.5867 37.44 54.8667 35.7467 53.64 33.56C52.44 31.3733 51.84 28.8133 51.84 25.88C51.84 22.9467 52.44 20.4 53.64 18.24C54.8667 16.0533 56.5867 14.36 58.8 13.16C61.04 11.96 63.6933 11.36 66.76 11.36C68.7067 11.36 70.48 11.6267 72.08 12.16C73.68 12.6667 75.0267 13.4 76.12 14.36L73.92 20.16C72.6933 19.28 71.56 18.6667 70.52 18.32C69.5067 17.9467 68.3467 17.76 67.04 17.76C64.64 17.76 62.7867 18.4667 61.48 19.88C60.2 21.2667 59.56 23.2667 59.56 25.88C59.56 28.52 60.2 30.5467 61.48 31.96C62.7867 33.3467 64.64 34.04 67.04 34.04C68.3467 34.04 69.5067 33.8667 70.52 33.52C71.56 33.1467 72.6933 32.52 73.92 31.64L76.12 37.44C75.0267 38.4 73.68 39.1467 72.08 39.68C70.48 40.1867 68.7067 40.44 66.76 40.44ZM88.3366 40.44C86.0699 40.44 84.1099 40.0133 82.4566 39.16C80.8032 38.3067 79.5232 37.0933 78.6166 35.52C77.7099 33.92 77.2566 32.0267 77.2566 29.84C77.2566 27.6267 77.7099 25.7333 78.6166 24.16C79.5232 22.5867 80.8032 21.3733 82.4566 20.52C84.1099 19.6667 86.0699 19.24 88.3366 19.24C90.5766 19.24 92.5232 19.6667 94.1766 20.52C95.8299 21.3733 97.1099 22.6 98.0166 24.2C98.9232 25.7733 99.3766 27.6533 99.3766 29.84C99.3766 32 98.9232 33.88 98.0166 35.48C97.1099 37.08 95.8299 38.3067 94.1766 39.16C92.5232 40.0133 90.5766 40.44 88.3366 40.44ZM88.3366 35.16C89.5099 35.16 90.4432 34.7467 91.1366 33.92C91.8299 33.0667 92.1766 31.7067 92.1766 29.84C92.1766 27.9733 91.8299 26.6267 91.1366 25.8C90.4432 24.9467 89.5099 24.52 88.3366 24.52C87.1366 24.52 86.1899 24.9467 85.4966 25.8C84.8032 26.6267 84.4566 27.9733 84.4566 29.84C84.4566 31.7067 84.8032 33.0667 85.4966 33.92C86.1899 34.7467 87.1366 35.16 88.3366 35.16ZM102.864 40V25.2C102.864 24.2933 102.837 23.3733 102.784 22.44C102.731 21.5067 102.651 20.5867 102.544 19.68H109.424L109.824 23.2H109.384C109.971 21.9733 110.837 21.0133 111.984 20.32C113.131 19.6 114.477 19.24 116.024 19.24C117.517 19.24 118.784 19.6 119.824 20.32C120.891 21.0133 121.664 22.12 122.144 23.64H121.464C122.131 22.2533 123.091 21.1733 124.344 20.4C125.624 19.6267 127.051 19.24 128.624 19.24C130.944 19.24 132.677 19.9467 133.824 21.36C134.971 22.7467 135.544 24.92 135.544 27.88V40H128.384V28.12C128.384 26.8667 128.197 25.9867 127.824 25.48C127.451 24.9467 126.851 24.68 126.024 24.68C124.984 24.68 124.171 25.0533 123.584 25.8C123.024 26.5467 122.744 27.5733 122.744 28.88V40H115.624V28.12C115.624 26.8667 115.424 25.9867 115.024 25.48C114.651 24.9467 114.064 24.68 113.264 24.68C112.224 24.68 111.411 25.0533 110.824 25.8C110.264 26.5467 109.984 27.5733 109.984 28.88V40H102.864ZM139.817 48.64V25.2C139.817 24.2933 139.791 23.3733 139.737 22.44C139.684 21.5067 139.604 20.5867 139.497 19.68L146.377 19.68L146.817 23.28H146.417C146.791 22.08 147.617 21.1067 148.897 20.36C150.177 19.6133 151.604 19.24 153.177 19.24C154.937 19.24 156.484 19.6667 157.817 20.52C159.151 21.3467 160.191 22.56 160.937 24.16C161.711 25.7333 162.097 27.6267 162.097 29.84C162.097 32.0267 161.711 33.92 160.937 35.52C160.191 37.12 159.151 38.3467 157.817 39.2C156.484 40.0267 154.937 40.44 153.177 40.44C151.631 40.44 150.231 40.0933 148.977 39.4C147.724 38.68 146.897 37.7333 146.497 36.56H146.937V48.64H139.817ZM150.897 35.16C152.124 35.16 153.097 34.7467 153.817 33.92C154.564 33.0667 154.937 31.7067 154.937 29.84C154.937 27.9733 154.564 26.6267 153.817 25.8C153.097 24.9467 152.124 24.52 150.897 24.52C149.697 24.52 148.724 24.9467 147.977 25.8C147.231 26.6267 146.857 27.9733 146.857 29.84C146.857 31.7067 147.231 33.0667 147.977 33.92C148.724 34.7467 149.697 35.16 150.897 35.16ZM173.559 40.44C171.799 40.44 170.253 40.0267 168.919 39.2C167.586 38.3467 166.533 37.12 165.759 35.52C165.013 33.92 164.639 32.0267 164.639 29.84C164.639 27.6267 165.013 25.7333 165.759 24.16C166.533 22.56 167.586 21.3467 168.919 20.52C170.253 19.6667 171.799 19.24 173.559 19.24C175.133 19.24 176.546 19.6133 177.799 20.36C179.079 21.1067 179.919 22.08 180.319 23.28H179.919L180.359 19.68H187.199C187.119 20.5867 187.039 21.5067 186.959 22.44C186.906 23.3733 186.879 24.2933 186.879 25.2V40H179.839L179.759 36.56H180.239C179.839 37.7333 178.999 38.68 177.719 39.4C176.466 40.0933 175.079 40.44 173.559 40.44ZM175.839 35.16C177.039 35.16 178.013 34.7467 178.759 33.92C179.506 33.0667 179.879 31.7067 179.879 29.84C179.879 27.9733 179.506 26.6267 178.759 25.8C178.013 24.9467 177.039 24.52 175.839 24.52C174.639 24.52 173.666 24.9467 172.919 25.8C172.173 26.6267 171.799 27.9733 171.799 29.84C171.799 31.7067 172.159 33.0667 172.879 33.92C173.626 34.7467 174.613 35.16 175.839 35.16ZM191.302 40V25.2C191.302 24.2933 191.275 23.3733 191.222 22.44C191.168 21.5067 191.088 20.5867 190.982 19.68H197.862L198.262 23.2H197.822C198.488 21.92 199.435 20.9467 200.662 20.28C201.888 19.5867 203.275 19.24 204.822 19.24C207.195 19.24 208.968 19.9467 210.142 21.36C211.342 22.7467 211.942 24.92 211.942 27.88V40H204.822V28.2C204.822 26.8933 204.595 25.9867 204.142 25.48C203.688 24.9467 203.035 24.68 202.182 24.68C201.062 24.68 200.155 25.0533 199.462 25.8C198.768 26.52 198.422 27.48 198.422 28.68V40H191.302ZM216.223 40V19.68H223.343V40H216.223ZM216.063 16.8V10.4H223.543V16.8H216.063ZM237.907 40.44C235.64 40.44 233.68 40.0133 232.027 39.16C230.374 38.3067 229.094 37.0933 228.187 35.52C227.28 33.92 226.827 32.0267 226.827 29.84C226.827 27.6267 227.28 25.7333 228.187 24.16C229.094 22.5867 230.374 21.3733 232.027 20.52C233.68 19.6667 235.64 19.24 237.907 19.24C240.147 19.24 242.094 19.6667 243.747 20.52C245.4 21.3733 246.68 22.6 247.587 24.2C248.494 25.7733 248.947 27.6533 248.947 29.84C248.947 32 248.494 33.88 247.587 35.48C246.68 37.08 245.4 38.3067 243.747 39.16C242.094 40.0133 240.147 40.44 237.907 40.44ZM237.907 35.16C239.08 35.16 240.014 34.7467 240.707 33.92C241.4 33.0667 241.747 31.7067 241.747 29.84C241.747 27.9733 241.4 26.6267 240.707 25.8C240.014 24.9467 239.08 24.52 237.907 24.52C236.707 24.52 235.76 24.9467 235.067 25.8C234.374 26.6267 234.027 27.9733 234.027 29.84C234.027 31.7067 234.374 33.0667 235.067 33.92C235.76 34.7467 236.707 35.16 237.907 35.16ZM252.434 40V25.2C252.434 24.2933 252.408 23.3733 252.354 22.44C252.301 21.5067 252.221 20.5867 252.114 19.68H258.994L259.394 23.2H258.954C259.621 21.92 260.568 20.9467 261.794 20.28C263.021 19.5867 264.408 19.24 265.954 19.24C268.328 19.24 270.101 19.9467 271.274 21.36C272.474 22.7467 273.074 24.92 273.074 27.88V40H265.954V28.2C265.954 26.8933 265.728 25.9867 265.274 25.48C264.821 24.9467 264.168 24.68 263.314 24.68C262.194 24.68 261.288 25.0533 260.594 25.8C259.901 26.52 259.554 27.48 259.554 28.68V40H252.434Z" fill="#FFC328"/>
</svg>
